<?xml version="1.0" encoding="utf-8"?>
<!-- Generator: Adobe Illustrator 19.0.0, SVG Export Plug-In . SVG Version: 6.00 Build 0)  -->
<svg version="1.1" id="Layer_1" xmlns="http://www.w3.org/2000/svg" xmlns:xlink="http://www.w3.org/1999/xlink" x="0px" y="0px"
	 viewBox="0 0 682 182" style="enable-background:new 0 0 682 182;" xml:space="preserve">
<style type="text/css">
	.st0{fill:#80848a;}
</style>
<g id="XMLID_116_">
	<polygon id="XMLID_132_" class="st0" points="72.3,28.3 9.1,91.5 72.3,154.7 87.1,139.8 38.8,91.5 87.1,43.2 	"/>
	<polygon id="XMLID_131_" class="st0" points="608.9,28.3 594,43.2 642.3,91.5 594,139.8 608.9,154.7 672,91.5 	"/>
	<path id="XMLID_130_" class="st0" d="M133.9,55.7c-6.2,0-11.8,2.1-16.7,6l-0.4-4.7H101v62h17V86.2c0-4.1,1.2-7.4,3.7-10.2
		c2.4-2.7,5.4-4,9.2-4c4,0,6.9,1.1,9,3.5c2.2,2.4,3,5.7,3,10V119h18V85.4c0-9.1-2.5-16.3-7.6-21.7C148.3,58.3,141.8,55.7,133.9,55.7
		z"/>
	<path id="XMLID_129_" class="st0" d="M222,88.7c0,4.1-1.3,7.5-3.8,10.3c-2.4,2.7-5.4,4-9.2,4c-4,0-7.2-1.2-9.4-3.6
		c-2.2-2.5-3.5-5.7-3.5-9.9V57h-18v32.6c0,9.1,2.9,16.4,7.7,21.7c4.9,5.4,11.8,8.1,19.7,8.1c6.4,0,12.2-1.8,17.2-5.8l0.4,5.3H240V57
		h-18V88.7z"/>
	<path id="XMLID_126_" class="st0" d="M287.8,54.9c-9.5,0-17.4,3.1-23.4,9.1c-6,6-9.1,13.8-9.1,23.2c0,9.8,3.1,17.8,9.2,23.8
		c6.1,5.9,14.2,8.9,24.1,8.9c4.9,0,9.8-0.9,14.5-2.7c4.8-1.8,8.8-4.5,11.9-7.8l1.9-2l-11.7-11.4l-1.9,2.1c-1.4,1.5-3.4,2.7-6,3.7
		c-2.8,1-5.6,1.5-8.3,1.5c-4.5,0-8.1-1-10.9-3.2c-1.9-1.5-3.2-4.2-4-5.2h44.9l0.2-2.7c1.1-11.9-1.2-21.3-7-27.7
		C306.2,58.2,298.1,54.9,287.8,54.9z M301.6,79h-27.2c0.9-2,2.2-3.6,4-5c2.7-2,5.9-3,9.7-3c4.2,0,7.5,0.9,10,2.9
		C299.8,75.2,301,77,301.6,79z"/>
	<path id="XMLID_125_" class="st0" d="M413,122.4c0,3.9-0.4,5.7-0.9,6.6c-0.1,0.3-0.5,1.1-2.8,1.1l-0.3,0c-1.7,0-3.6-0.5-5.6-1.5
		l-2.6-1.2l-6.4,14.1l2,1.3c4.1,2.7,8.6,4,13.4,4c7.1,0,12.7-2.2,16-6.5c3.2-4.1,5-10.1,5-18V56h-18V122.4z"/>
	<path id="XMLID_124_" class="st0" d="M426.9,33.5c-1.6-0.8-3.3-1.2-4.9-1.2c-1.7,0-3.3,0.4-4.9,1.2c-2.4,1.2-5.2,3.7-5.2,8.9
		c0,5.2,2.8,7.7,5.2,9c1.6,0.8,3.3,1.3,5,1.3c1.7,0,3.3-0.4,5-1.3c2.4-1.2,5.2-3.8,5.2-9C432.1,37.2,429.3,34.6,426.9,33.5z"/>
	<path id="XMLID_121_" class="st0" d="M478.6,55.3c-9.4,0-17.1,3.1-23.1,9.2c-5.9,6.1-8.9,13.8-8.9,23s3,16.9,8.8,23
		c5.9,6.1,13.7,9.2,23.1,9.2c9.5,0,17.4-3.1,23.3-9.2c5.9-6.1,8.9-13.8,8.9-23c0-9.1-3-16.9-9-23C495.8,58.4,488,55.3,478.6,55.3z
		 M464.1,87.6c0-4.5,1.3-8.2,4.1-11.3c2.6-3,6.1-4.4,10.5-4.4c4.3,0,7.7,1.5,10.4,4.5c2.8,3.1,4.2,6.8,4.2,11.3
		c0,4.5-1.3,8.2-4,11.2c-2.6,2.9-6.1,4.4-10.6,4.4c-4.5,0-7.9-1.4-10.5-4.3C465.4,95.8,464.1,92.1,464.1,87.6z"/>
	<path id="XMLID_118_" class="st0" d="M555.9,54.9c-9.5,0-17.4,3.1-23.4,9.1c-6,6-9.1,13.8-9.1,23.2c0,9.8,3.1,17.8,9.2,23.8
		c6.1,5.9,14.2,8.9,24.1,8.9c4.9,0,9.8-0.9,14.5-2.7c4.8-1.8,8.8-4.5,11.9-7.8l1.9-2l-11.7-11.4l-1.9,2.1c-1.4,1.5-3.4,2.7-6,3.7
		c-2.8,1-5.6,1.5-8.3,1.5c-4.5,0-8.1-1-11-3.2c-1.9-1.5-3.2-4.2-4-5.2h44.9l0.2-2.7c1.1-11.9-1.2-21.3-7-27.7S566.2,54.9,555.9,54.9
		z M569.7,79h-27.2c0.9-2,2.2-3.6,4-5c2.7-2,5.9-3,9.7-3c4.2,0,7.5,0.9,10,2.9C568,75.2,569.1,77,569.7,79z"/>
	
		<rect id="XMLID_117_" x="278.2" y="81" transform="matrix(0.2731 -0.962 0.962 0.2731 172.6442 411.4684)" class="st0" width="160.7" height="21"/>
</g>
</svg>
